<svg width="50" height="41" viewBox="0 0 50 41" fill="none" xmlns="http://www.w3.org/2000/svg">
<path d="M3.40909 40.7778H11.3636V20.177L0 11.0883V37.1424C0 39.154 1.52841 40.7778 3.40909 40.7778Z" fill="#E3F8FF"/>
<path d="M38.6364 40.7778H46.5909C48.4773 40.7778 50 39.1479 50 37.1424V11.0883L38.6364 20.177" fill="#E3F8FF"/>
<path d="M38.6364 4.4236V20.177L50 11.0883V6.24132C50 1.74548 45.1875 -0.817512 41.8182 1.87878" fill="#E3F8FF"/>
<path d="M11.3636 20.177L11.3636 4.42334L25 15.3297L38.6364 4.4236V20.177L25 31.0833" fill="#E3F8FF"/>
<path d="M0 6.24132V11.0883L11.3636 20.177L11.3636 4.42334L8.18182 1.87878C4.80682 -0.817512 0 1.74548 0 6.24132Z" fill="#E3F8FF"/>
</svg>
