<svg width="42" height="43" viewBox="0 0 42 43" fill="none" xmlns="http://www.w3.org/2000/svg">
<path fill-rule="evenodd" clip-rule="evenodd" d="M29.5727 12.3133C27.3782 10.2618 24.4497 9.14418 21.4197 9.19011C15.8751 9.19011 11.1661 12.8567 9.48711 17.7941C8.59685 20.3814 8.59685 23.1832 9.4871 25.7705H9.4949C11.1817 30.7002 15.8829 34.3669 21.4275 34.3669C24.2897 34.3669 26.7468 33.6493 28.6512 32.3818V32.3767C30.8925 30.9222 32.4231 28.6335 32.8995 26.0461H21.4198V18.0239H41.4663C41.7162 19.417 41.8334 20.8408 41.8334 22.257C41.8334 28.5933 39.5232 33.9504 35.5036 37.5787L35.5077 37.5819C31.9857 40.7663 27.1518 42.6111 21.4197 42.6111C13.3839 42.6111 6.03537 38.1713 2.42746 31.1365C-0.586912 25.25 -0.586905 18.3147 2.42748 12.4282C6.03539 5.38571 13.3839 0.945862 21.4197 0.945862C26.6988 0.884623 31.7983 2.82895 35.6405 6.36548L29.5727 12.3133Z" fill="#E3F8FF"/>
</svg>
