<svg width="50" height="51" viewBox="0 0 50 51" fill="none" xmlns="http://www.w3.org/2000/svg">
<path fill-rule="evenodd" clip-rule="evenodd" d="M25.0147 12.9409C17.9207 12.9409 12.1653 18.6929 12.1653 25.7827C12.1653 32.8726 17.9207 38.6245 25.0147 38.6245C32.1087 38.6245 37.864 32.8726 37.864 25.7827C37.864 18.6929 32.1087 12.9409 25.0147 12.9409ZM25.0147 34.1128C20.4123 34.1128 16.6797 30.3823 16.6797 25.7827C16.6797 21.1831 20.4123 17.4526 25.0147 17.4526C29.617 17.4526 33.3496 21.1831 33.3496 25.7827C33.3496 30.3823 29.617 34.1128 25.0147 34.1128Z" fill="#E3F8FF"/>
<path d="M38.3721 15.4312C40.0234 15.4312 41.3719 14.0933 41.3719 12.4331C41.3719 10.7827 40.0234 9.43508 38.3721 9.43508C36.7207 9.43508 35.3723 10.773 35.3723 12.4331C35.3723 14.0835 36.711 15.4312 38.3721 15.4312Z" fill="#E3F8FF"/>
<path fill-rule="evenodd" clip-rule="evenodd" d="M25.0147 0.782715C18.2236 0.782715 17.3735 0.812012 14.7059 0.929199C12.0481 1.04639 10.2208 1.47607 8.63787 2.09131C6.98651 2.73584 5.58921 3.58545 4.20168 4.98193C2.80438 6.36865 1.95427 7.76514 1.30936 9.40576C0.693766 10.9976 0.263826 12.814 0.14657 15.4702C0.0293141 18.146 0 18.9956 0 25.7827C0 32.5698 0.0293141 33.4194 0.14657 36.0854C0.263826 38.7417 0.693766 40.5679 1.30936 42.1499C1.95427 43.8003 2.80438 45.1968 4.20168 46.5835C5.58921 47.9702 6.98652 48.8296 8.6281 49.4644C10.2208 50.0796 12.0383 50.5093 14.6961 50.6265C17.3637 50.7436 18.2138 50.7729 25.0049 50.7729C31.796 50.7729 32.6461 50.7436 35.3137 50.6265C37.9715 50.5093 39.7987 50.0796 41.3817 49.4644C43.0233 48.8296 44.4206 47.9702 45.8081 46.5835C47.1956 45.1968 48.0555 43.8003 48.6906 42.1597C49.3062 40.5679 49.7362 38.7515 49.8534 36.0952C49.9707 33.4292 50 32.5796 50 25.7925C50 19.0054 49.9707 18.1558 49.8534 15.4897C49.7362 12.8335 49.3062 11.0073 48.6906 9.42529C48.075 7.76514 47.2249 6.36865 45.8276 4.98193C44.4401 3.59521 43.0428 2.73584 41.4012 2.10107C39.8085 1.48584 37.991 1.05615 35.3332 0.938965C32.6558 0.812012 31.8057 0.782715 25.0147 0.782715ZM25.0147 5.28467C31.6983 5.28467 32.4897 5.31396 35.1182 5.43115C37.5611 5.53857 38.8802 5.94873 39.7596 6.29053C40.9224 6.73975 41.7627 7.28662 42.6324 8.15576C43.5118 9.03467 44.0492 9.86475 44.4987 11.0269C44.8407 11.9058 45.2511 13.2339 45.3586 15.6655C45.4759 18.3022 45.5052 19.0933 45.5052 25.7632C45.5052 32.4429 45.4759 33.2339 45.3586 35.8608C45.2511 38.3022 44.8407 39.6206 44.4987 40.4995C44.0492 41.6616 43.502 42.5015 42.6324 43.3706C41.753 44.2495 40.9224 44.7866 39.7596 45.2358C38.8802 45.5776 37.5513 45.9878 35.1182 46.0952C32.48 46.2124 31.6885 46.2417 25.0147 46.2417C18.3311 46.2417 17.5396 46.2124 14.9111 46.0952C12.4682 45.9878 11.1491 45.5776 10.2697 45.2358C9.1069 44.7866 8.26656 44.2397 7.39691 43.3706C6.51749 42.4917 5.98007 41.6616 5.53058 40.4995C5.18859 39.6206 4.77819 38.2925 4.67071 35.8608C4.55345 33.2241 4.52414 32.4331 4.52414 25.7632C4.52414 19.0835 4.55345 18.2925 4.67071 15.6655C4.77819 13.2241 5.18859 11.9058 5.53058 11.0269C5.98007 9.86475 6.52726 9.0249 7.39691 8.15576C8.27633 7.27685 9.1069 6.73975 10.2697 6.29053C11.1491 5.94873 12.478 5.53857 14.9111 5.43115C17.5396 5.31396 18.3311 5.28467 25.0147 5.28467Z" fill="#E3F8FF"/>
</svg>
